<svg xmlns="http://www.w3.org/2000/svg" xmlns:xlink="http://www.w3.org/1999/xlink" width="500" zoomAndPan="magnify" viewBox="0 0 375 374.999991" height="500" preserveAspectRatio="xMidYMid meet" version="1.0"><defs><g/><clipPath id="80e8a63332"><path d="M 17 69 L 358 69 L 358 202.351562 L 17 202.351562 Z M 17 69 " clip-rule="nonzero"/></clipPath></defs><g clip-path="url(#80e8a63332)"><path fill="#000000" d="M 355.285156 110.242188 L 195.667969 70.25 C 190.308594 68.910156 184.730469 68.910156 179.484375 70.25 L 19.75 110.242188 C 16.960938 110.910156 16.960938 114.933594 19.75 115.605469 L 98.222656 135.265625 C 142.648438 122.082031 190.421875 121.414062 235.851562 129.457031 C 189.863281 124.316406 141.417969 128.339844 98.222656 144.984375 L 98.222656 167.4375 C 98.222656 169.335938 100.007812 170.566406 101.792969 170.007812 C 127.242188 162.1875 156.488281 157.605469 187.519531 157.605469 C 218.550781 157.605469 247.792969 162.1875 273.355469 170.007812 C 275.140625 170.566406 276.816406 169.335938 276.816406 167.4375 L 276.816406 135.265625 L 311.085938 126.664062 L 311.085938 186.761719 L 310.527344 186.761719 C 309.296875 186.761719 308.292969 187.769531 308.292969 188.996094 L 308.292969 200.054688 C 308.292969 201.285156 309.296875 202.289062 310.527344 202.289062 L 317.222656 202.289062 C 318.453125 202.289062 319.457031 201.285156 319.457031 200.054688 L 319.457031 188.996094 C 319.457031 187.769531 318.453125 186.761719 317.222656 186.761719 L 316.664062 186.761719 L 316.664062 125.324219 L 355.285156 115.605469 C 358.1875 114.933594 358.1875 110.914062 355.285156 110.242188 Z M 355.285156 110.242188 " fill-opacity="1" fill-rule="nonzero"/></g><g fill="#000000" fill-opacity="1"><g transform="translate(24.197987, 275.655671)"><g><path d="M 36.265625 -33.390625 L 68.109375 -33.390625 L 68.109375 -30.921875 C 68.109375 -26.515625 67.285156 -22.40625 65.640625 -18.59375 C 63.992188 -14.78125 61.707031 -11.414062 58.78125 -8.5 C 55.863281 -5.582031 52.5 -3.296875 48.6875 -1.640625 C 44.875 0.00390625 40.769531 0.828125 36.375 0.828125 C 31.976562 0.828125 27.851562 0.00390625 24 -1.640625 C 20.15625 -3.296875 16.789062 -5.582031 13.90625 -8.5 C 11.019531 -11.414062 8.753906 -14.78125 7.109375 -18.59375 C 5.460938 -22.40625 4.640625 -26.515625 4.640625 -30.921875 C 4.640625 -35.316406 5.460938 -39.421875 7.109375 -43.234375 C 8.753906 -47.046875 11.019531 -50.410156 13.90625 -53.328125 C 16.789062 -56.242188 20.15625 -58.523438 24 -60.171875 C 27.851562 -61.828125 31.976562 -62.65625 36.375 -62.65625 C 42.351562 -62.65625 47.8125 -61.125 52.75 -58.0625 C 57.695312 -55.007812 61.515625 -51.007812 64.203125 -46.0625 L 55.546875 -41.421875 C 53.691406 -44.859375 51.078125 -47.585938 47.703125 -49.609375 C 44.335938 -51.640625 40.5625 -52.65625 36.375 -52.65625 C 32.320312 -52.65625 28.628906 -51.691406 25.296875 -49.765625 C 21.960938 -47.847656 19.332031 -45.253906 17.40625 -41.984375 C 15.488281 -38.722656 14.53125 -35.035156 14.53125 -30.921875 C 14.53125 -26.796875 15.488281 -23.097656 17.40625 -19.828125 C 19.332031 -16.566406 21.960938 -13.972656 25.296875 -12.046875 C 28.628906 -10.128906 32.320312 -9.171875 36.375 -9.171875 C 41.457031 -9.171875 45.90625 -10.644531 49.71875 -13.59375 C 53.53125 -16.550781 56.054688 -20.332031 57.296875 -24.9375 L 36.265625 -24.9375 Z M 36.265625 -33.390625 "/></g></g></g><g fill="#000000" fill-opacity="1"><g transform="translate(96.832593, 275.655671)"><g><path d="M 44.3125 0 L 39.875 -13.09375 L 14.625 -13.09375 L 10.203125 0 L -0.71875 0 L 21.640625 -61.828125 L 32.875 -61.828125 L 55.234375 0 Z M 17.625 -21.953125 L 37 -21.953125 L 27.3125 -50.796875 Z M 17.625 -21.953125 "/></g></g></g><g fill="#000000" fill-opacity="1"><g transform="translate(151.334308, 275.655671)"><g><path d="M 35.453125 -26.890625 L 53.171875 0 L 41.84375 0 L 25.453125 -25.96875 L 16.90625 -25.96875 L 16.90625 0 L 6.796875 0 L 6.796875 -61.828125 L 31.015625 -61.828125 C 34.378906 -61.828125 37.398438 -61.019531 40.078125 -59.40625 C 42.765625 -57.789062 44.894531 -55.609375 46.46875 -52.859375 C 48.050781 -50.109375 48.84375 -47.050781 48.84375 -43.6875 C 48.84375 -39.5 47.570312 -35.859375 45.03125 -32.765625 C 42.488281 -29.671875 39.296875 -27.710938 35.453125 -26.890625 Z M 16.90625 -34.734375 L 29.78125 -34.734375 C 32.394531 -34.734375 34.578125 -35.554688 36.328125 -37.203125 C 38.078125 -38.847656 38.953125 -40.976562 38.953125 -43.59375 C 38.953125 -46.195312 38.078125 -48.320312 36.328125 -49.96875 C 34.578125 -51.625 32.394531 -52.453125 29.78125 -52.453125 L 16.90625 -52.453125 Z M 16.90625 -34.734375 "/></g></g></g><g fill="#000000" fill-opacity="1"><g transform="translate(204.702717, 275.655671)"><g><path d="M 36.171875 0.828125 C 31.773438 0.828125 27.671875 0.00390625 23.859375 -1.640625 C 20.046875 -3.296875 16.675781 -5.582031 13.75 -8.5 C 10.832031 -11.414062 8.550781 -14.78125 6.90625 -18.59375 C 5.257812 -22.40625 4.4375 -26.515625 4.4375 -30.921875 C 4.4375 -35.316406 5.257812 -39.421875 6.90625 -43.234375 C 8.550781 -47.046875 10.832031 -50.410156 13.75 -53.328125 C 16.675781 -56.242188 20.046875 -58.523438 23.859375 -60.171875 C 27.671875 -61.828125 31.773438 -62.65625 36.171875 -62.65625 C 42.210938 -62.65625 47.6875 -61.125 52.59375 -58.0625 C 57.507812 -55.007812 61.304688 -51.007812 63.984375 -46.0625 L 55.34375 -41.421875 C 53.550781 -44.859375 50.953125 -47.585938 47.546875 -49.609375 C 44.148438 -51.640625 40.359375 -52.65625 36.171875 -52.65625 C 32.117188 -52.65625 28.441406 -51.691406 25.140625 -49.765625 C 21.847656 -47.847656 19.238281 -45.253906 17.3125 -41.984375 C 15.382812 -38.722656 14.421875 -35.035156 14.421875 -30.921875 C 14.421875 -26.796875 15.382812 -23.097656 17.3125 -19.828125 C 19.238281 -16.566406 21.847656 -13.972656 25.140625 -12.046875 C 28.441406 -10.128906 32.117188 -9.171875 36.171875 -9.171875 C 40.359375 -9.171875 44.148438 -10.203125 47.546875 -12.265625 C 50.953125 -14.328125 53.550781 -17.039062 55.34375 -20.40625 L 63.984375 -15.765625 C 61.304688 -10.816406 57.507812 -6.8125 52.59375 -3.75 C 47.6875 -0.695312 42.210938 0.828125 36.171875 0.828125 Z M 36.171875 0.828125 "/></g></g></g><g fill="#000000" fill-opacity="1"><g transform="translate(271.670808, 275.655671)"><g><path d="M 7.3125 0 L 7.3125 -61.828125 L 17.421875 -61.828125 L 17.421875 0 Z M 7.3125 0 "/></g></g></g><g fill="#000000" fill-opacity="1"><g transform="translate(296.294459, 275.655671)"><g><path d="M 44.3125 0 L 39.875 -13.09375 L 14.625 -13.09375 L 10.203125 0 L -0.71875 0 L 21.640625 -61.828125 L 32.875 -61.828125 L 55.234375 0 Z M 17.625 -21.953125 L 37 -21.953125 L 27.3125 -50.796875 Z M 17.625 -21.953125 "/></g></g></g><g fill="#000000" fill-opacity="1"><g transform="translate(74.027428, 301.787513)"><g><path d="M 1.9375 0 L 1.9375 -13.96875 L 9.796875 -13.96875 C 9.847656 -13.707031 9.890625 -13.453125 9.921875 -13.203125 C 9.960938 -12.953125 10.007812 -12.695312 10.0625 -12.4375 L 3.90625 -12.4375 L 3.90625 -7.859375 L 7.828125 -7.859375 C 7.867188 -7.597656 7.90625 -7.34375 7.9375 -7.09375 C 7.976562 -6.84375 8.03125 -6.59375 8.09375 -6.34375 L 3.90625 -6.34375 L 3.90625 -1.546875 L 10.53125 -1.546875 L 10.796875 0 Z M 1.9375 0 "/></g></g></g><g fill="#000000" fill-opacity="1"><g transform="translate(99.725237, 301.787513)"><g><path d="M 1.9375 0 L 1.9375 -13.96875 L 6.75 -13.96875 C 8.914062 -13.96875 10.492188 -13.304688 11.484375 -11.984375 C 12.472656 -10.660156 12.96875 -9.019531 12.96875 -7.0625 C 12.96875 -5.019531 12.425781 -3.332031 11.34375 -2 C 10.269531 -0.664062 8.710938 0 6.671875 0 Z M 6.84375 -12.28125 L 3.90625 -12.28125 L 3.90625 -1.640625 L 6.671875 -1.640625 C 7.960938 -1.640625 9.003906 -2.097656 9.796875 -3.015625 C 10.585938 -3.929688 10.984375 -5.273438 10.984375 -7.046875 C 10.984375 -8.585938 10.644531 -9.84375 9.96875 -10.8125 C 9.300781 -11.789062 8.257812 -12.28125 6.84375 -12.28125 Z M 6.84375 -12.28125 "/></g></g></g><g fill="#000000" fill-opacity="1"><g transform="translate(128.419771, 301.787513)"><g><path d="M 3.734375 -5.171875 C 3.734375 -3.992188 4.046875 -3.066406 4.671875 -2.390625 C 5.304688 -1.722656 6.140625 -1.390625 7.171875 -1.390625 C 8.234375 -1.390625 9.066406 -1.734375 9.671875 -2.421875 C 10.273438 -3.109375 10.578125 -4.023438 10.578125 -5.171875 L 10.578125 -13.96875 L 12.5625 -13.96875 L 12.5625 -4.984375 C 12.5625 -3.492188 12.078125 -2.253906 11.109375 -1.265625 C 10.148438 -0.273438 8.835938 0.21875 7.171875 0.21875 C 5.492188 0.21875 4.171875 -0.269531 3.203125 -1.25 C 2.242188 -2.238281 1.765625 -3.484375 1.765625 -4.984375 L 1.765625 -13.96875 L 3.734375 -13.96875 Z M 3.734375 -5.171875 "/></g></g></g><g fill="#000000" fill-opacity="1"><g transform="translate(157.134824, 301.787513)"><g><path d="M 10.484375 -11.984375 C 9.984375 -12.160156 9.53125 -12.300781 9.125 -12.40625 C 8.71875 -12.507812 8.179688 -12.5625 7.515625 -12.5625 C 6.242188 -12.5625 5.238281 -12.039062 4.5 -11 C 3.757812 -9.957031 3.390625 -8.597656 3.390625 -6.921875 C 3.390625 -5.410156 3.703125 -4.109375 4.328125 -3.015625 C 4.960938 -1.929688 5.96875 -1.390625 7.34375 -1.390625 C 8.019531 -1.390625 8.601562 -1.445312 9.09375 -1.5625 C 9.582031 -1.6875 10.019531 -1.835938 10.40625 -2.015625 L 11.171875 -0.53125 C 10.703125 -0.300781 10.109375 -0.109375 9.390625 0.046875 C 8.671875 0.203125 8.019531 0.28125 7.4375 0.28125 C 5.28125 0.28125 3.722656 -0.425781 2.765625 -1.84375 C 1.804688 -3.257812 1.328125 -4.945312 1.328125 -6.90625 C 1.328125 -9 1.851562 -10.742188 2.90625 -12.140625 C 3.96875 -13.546875 5.519531 -14.25 7.5625 -14.25 C 7.96875 -14.25 8.53125 -14.179688 9.25 -14.046875 C 9.976562 -13.921875 10.597656 -13.707031 11.109375 -13.40625 Z M 10.484375 -11.984375 "/></g></g></g><g fill="#000000" fill-opacity="1"><g transform="translate(183.735758, 301.787513)"><g><path d="M 6.234375 -11.3125 L 4 -5.3125 L 8.546875 -5.3125 Z M 7.171875 -13.96875 L 12.546875 -0.28125 L 10.59375 0 L 9.140625 -3.734375 L 3.453125 -3.734375 L 2.046875 0 L 0.125 0 L 5.375 -13.96875 Z M 7.171875 -13.96875 "/></g></g></g><g fill="#000000" fill-opacity="1"><g transform="translate(210.767722, 301.787513)"><g><path d="M 11.09375 -12.40625 L 6.484375 -12.40625 L 6.484375 0 L 4.5 0 L 4.5 -12.40625 L 0.171875 -12.40625 L 0.171875 -13.96875 L 10.8125 -13.96875 C 10.851562 -13.707031 10.894531 -13.445312 10.9375 -13.1875 C 10.976562 -12.925781 11.03125 -12.664062 11.09375 -12.40625 Z M 11.09375 -12.40625 "/></g></g></g><g fill="#000000" fill-opacity="1"><g transform="translate(236.383431, 301.787513)"><g><path d="M 1.9375 0 L 1.9375 -13.96875 L 3.90625 -13.96875 L 3.90625 0 Z M 1.9375 0 "/></g></g></g><g fill="#000000" fill-opacity="1"><g transform="translate(256.580418, 301.787513)"><g><path d="M 1.328125 -6.921875 C 1.328125 -9.015625 1.863281 -10.753906 2.9375 -12.140625 C 4.019531 -13.535156 5.570312 -14.253906 7.59375 -14.296875 C 9.757812 -14.296875 11.34375 -13.578125 12.34375 -12.140625 C 13.34375 -10.710938 13.84375 -9.019531 13.84375 -7.0625 C 13.84375 -5.019531 13.300781 -3.289062 12.21875 -1.875 C 11.132812 -0.457031 9.570312 0.257812 7.53125 0.28125 C 5.382812 0.28125 3.8125 -0.425781 2.8125 -1.84375 C 1.820312 -3.269531 1.328125 -4.960938 1.328125 -6.921875 Z M 3.390625 -6.9375 C 3.390625 -5.375 3.71875 -4.054688 4.375 -2.984375 C 5.039062 -1.921875 6.085938 -1.390625 7.515625 -1.390625 C 8.816406 -1.390625 9.847656 -1.890625 10.609375 -2.890625 C 11.367188 -3.890625 11.75 -5.28125 11.75 -7.0625 C 11.75 -8.601562 11.414062 -9.90625 10.75 -10.96875 C 10.09375 -12.039062 9.054688 -12.578125 7.640625 -12.578125 C 6.367188 -12.578125 5.34375 -12.050781 4.5625 -11 C 3.78125 -9.957031 3.390625 -8.601562 3.390625 -6.9375 Z M 3.390625 -6.9375 "/></g></g></g><g fill="#000000" fill-opacity="1"><g transform="translate(286.095961, 301.787513)"><g><path d="M 1.9375 0 L 1.9375 -13.96875 L 3.671875 -13.96875 L 9.9375 -5.171875 L 10.921875 -3.640625 L 10.921875 -13.96875 L 12.921875 -13.96875 L 12.921875 0 L 11.140625 0 L 4.6875 -9.171875 L 3.90625 -10.40625 L 3.90625 0 Z M 1.9375 0 "/></g></g></g></svg>